<svg width="498" height="305" viewBox="0 0 498 305" fill="none" xmlns="http://www.w3.org/2000/svg">
<g style="mix-blend-mode:multiply" filter="url(#filter0_bd_1_30)">
<path d="M200.27 185.405C206.394 172.08 211.498 158.378 215.339 145.397C195.288 138.092 175.608 134.09 159.766 137.173C173.307 153.294 186.933 169.623 200.27 185.405Z" fill="#913AE9" shape-rendering="crispEdges"/>
<path d="M200.27 185.405C186.933 169.623 173.307 153.294 159.766 137.173C157.461 137.621 155.238 138.22 153.106 138.98C138.219 173.588 159.819 192.331 191.819 202.31C194.812 196.803 197.636 191.139 200.27 185.405Z" fill="#773E48" shape-rendering="crispEdges"/>
<path d="M153.106 138.98C142.173 142.878 133.658 151.027 129 165C121.416 187.753 145.169 205.03 183.699 216.169C186.524 211.704 189.235 207.066 191.819 202.31C159.819 192.331 138.219 173.588 153.106 138.98Z" fill="#273E69" shape-rendering="crispEdges"/>
<path d="M129 165C133.658 151.027 142.173 142.878 153.106 138.98C153.972 136.968 154.96 134.903 156.077 132.783C53.1293 10.382 -42.9642 -96.057 32 146C81.9719 307.358 144.049 278.847 183.699 216.169C145.169 205.03 121.416 187.753 129 165Z" fill="#3E4477" fill-opacity="0.74" shape-rendering="crispEdges"/>
<path d="M318.5 212V203C318.5 203 265.748 163.762 215.339 145.397C211.498 158.378 206.394 172.08 200.27 185.405C206.982 193.347 213.621 201.15 220.139 208.719C266.615 216.107 318.5 212 318.5 212Z" fill="#3E7770" fill-opacity="0.74" shape-rendering="crispEdges"/>
<path d="M279 272.5C339.464 330.277 398.773 268.031 439.616 212.527C386.273 231.136 302.819 235.179 235.636 226.505C251.319 244.268 266.018 260.095 279 272.5Z" fill="#3E4477" fill-opacity="0.74" shape-rendering="crispEdges"/>
<path d="M439.616 212.527C470.596 201.719 491.42 185.997 493 165C496.238 121.984 474.765 164.759 439.616 212.527Z" fill="#3E48A4" fill-opacity="0.74" shape-rendering="crispEdges"/>
<path d="M200.27 185.405C197.636 191.139 194.812 196.803 191.819 202.31C200.65 205.064 210.273 207.15 220.139 208.719C213.621 201.15 206.982 193.347 200.27 185.405Z" fill="#6F3E77" fill-opacity="0.74" shape-rendering="crispEdges"/>
<path d="M191.819 202.31C189.235 207.066 186.524 211.704 183.699 216.169C199.022 220.599 216.681 224.058 235.636 226.505C230.565 220.762 225.391 214.817 220.139 208.719C210.273 207.15 200.65 205.064 191.819 202.31Z" fill="#3E6277" fill-opacity="0.74" shape-rendering="crispEdges"/>
<path d="M180.5 99.5C169.24 111.877 161.27 122.925 156.077 132.783C157.306 134.244 158.535 135.708 159.766 137.173C175.608 134.09 195.288 138.092 215.339 145.397C231.281 91.5227 225.468 50.0729 180.5 99.5Z" fill="#4D773E" fill-opacity="0.74" shape-rendering="crispEdges"/>
<path d="M318.5 203H319V202.749L318.798 202.599L318.5 203ZM129 165L129.474 165.158L129.474 165.158L129 165ZM493 165L492.501 164.963L493 165ZM279 272.5L278.655 272.862L278.655 272.862L279 272.5ZM32 146L31.5224 146.148L32 146ZM180.5 99.5L180.13 99.1636L180.13 99.1636L180.5 99.5ZM318.5 212L318.539 212.499L319 212.462V212H318.5ZM319 212V203H318V212H319ZM129.474 165.158C134.086 151.322 142.495 143.294 153.274 139.45L152.938 138.509C141.852 142.462 133.229 150.733 128.526 164.842L129.474 165.158ZM153.566 139.177C154.425 137.179 155.408 135.125 156.519 133.016L155.634 132.55C154.512 134.681 153.518 136.758 152.647 138.782L153.566 139.177ZM156.459 132.461C130.723 101.862 105.405 72.2479 83.0789 48.8261C71.9156 37.1151 61.4937 26.9453 52.1359 18.9713C42.7851 11.0033 34.4682 5.20283 27.5165 2.25939C20.5788 -0.678096 14.8365 -0.83074 10.835 2.8015C6.88618 6.38594 4.8223 13.511 4.7845 24.6028C4.70872 46.8362 12.7821 85.6364 31.5224 146.148L32.4776 145.852C13.7358 85.3353 5.7093 46.6689 5.78449 24.6062C5.82218 13.5499 7.89649 6.8194 11.5071 3.54194C15.0651 0.312281 20.3036 0.291358 27.1266 3.18025C33.9355 6.0632 42.1592 11.7838 51.4873 19.7325C60.8085 27.6753 71.204 37.8179 82.3551 49.5161C104.658 72.9127 129.957 102.504 155.694 133.105L156.459 132.461ZM31.5224 146.148C44.0233 186.513 57.292 215.041 70.8009 234.14C84.3092 253.237 98.0911 262.952 111.625 265.589C125.166 268.228 138.344 263.76 150.593 254.741C162.837 245.725 174.191 232.135 184.122 216.437L183.277 215.902C173.383 231.542 162.108 245.02 150 253.936C137.895 262.849 124.997 267.176 111.816 264.607C98.6274 262.037 85.0421 252.542 71.6173 233.562C58.193 214.583 44.9626 186.166 32.4776 145.852L31.5224 146.148ZM183.838 215.689C164.599 210.127 149.111 203.048 139.386 194.563C134.527 190.325 131.126 185.752 129.4 180.861C127.677 175.979 127.611 170.747 129.474 165.158L128.526 164.842C126.596 170.63 126.656 176.09 128.457 181.194C130.256 186.291 133.78 191 138.728 195.317C148.616 203.944 164.27 211.073 183.56 216.65L183.838 215.689ZM180.13 99.1636C168.851 111.561 160.853 122.644 155.634 132.55L156.519 133.016C161.687 123.206 169.629 112.193 180.87 99.8365L180.13 99.1636ZM200.725 185.614C206.858 172.267 211.971 158.542 215.819 145.539L214.86 145.255C211.025 158.213 205.93 171.892 199.816 185.197L200.725 185.614ZM215.51 144.927C195.436 137.614 175.65 133.572 159.67 136.682L159.861 137.663C175.567 134.607 195.141 138.571 215.168 145.867L215.51 144.927ZM159.383 137.494C172.923 153.614 186.55 169.945 199.889 185.728L200.652 185.083C187.315 169.301 173.691 152.975 160.149 136.851L159.383 137.494ZM160.149 136.851C158.918 135.386 157.688 133.923 156.459 132.461L155.694 133.105C156.923 134.566 158.153 136.029 159.383 137.494L160.149 136.851ZM318.5 203C318.798 202.599 318.798 202.599 318.798 202.598C318.797 202.598 318.797 202.598 318.796 202.597C318.794 202.596 318.792 202.594 318.788 202.592C318.782 202.587 318.772 202.579 318.759 202.57C318.733 202.551 318.695 202.522 318.644 202.485C318.542 202.41 318.39 202.298 318.191 202.152C317.791 201.859 317.199 201.428 316.427 200.872C314.884 199.762 312.624 198.156 309.754 196.171C304.016 192.202 295.84 186.718 286.087 180.661C266.586 168.548 240.762 154.127 215.51 144.927L215.168 145.867C240.325 155.032 266.082 169.412 285.559 181.51C295.295 187.558 303.458 193.032 309.185 196.993C312.049 198.974 314.304 200.577 315.843 201.684C316.612 202.238 317.202 202.667 317.6 202.958C317.799 203.104 317.949 203.215 318.05 203.289C318.101 203.327 318.139 203.355 318.164 203.373C318.177 203.383 318.186 203.39 318.192 203.394C318.195 203.397 318.198 203.399 318.199 203.4C318.2 203.4 318.201 203.401 318.201 203.401C318.201 203.401 318.202 203.401 318.5 203ZM159.67 136.682C157.343 137.135 155.095 137.739 152.938 138.509L153.274 139.45C155.38 138.7 157.579 138.107 159.861 137.663L159.67 136.682ZM215.819 145.539C219.81 132.048 222.444 119.323 223.442 108.593C224.438 97.8849 223.813 89.0848 221.214 83.4995C219.908 80.6938 218.085 78.6603 215.684 77.6361C213.283 76.6121 210.385 76.6316 206.997 77.7693C200.249 80.0356 191.381 86.7968 180.13 99.1636L180.87 99.8365C192.103 87.4897 200.825 80.897 207.315 78.7173C210.547 77.632 213.18 77.6555 215.292 78.556C217.403 79.4563 219.072 81.2679 220.307 83.9214C222.789 89.2545 223.439 97.8291 222.447 108.5C221.456 119.149 218.839 131.808 214.86 145.255L215.819 145.539ZM152.647 138.782C145.149 156.212 146.811 169.745 154.477 180.177C162.111 190.565 175.635 197.787 191.67 202.787L191.968 201.833C176.003 196.854 162.727 189.715 155.283 179.585C147.871 169.498 146.176 156.356 153.566 139.177L152.647 138.782ZM192.259 202.549C195.257 197.031 198.086 191.357 200.725 185.614L199.816 185.197C197.186 190.921 194.367 196.575 191.38 202.071L192.259 202.549ZM184.122 216.437C186.953 211.961 189.669 207.313 192.259 202.549L191.38 202.071C188.8 206.818 186.095 211.447 183.277 215.902L184.122 216.437ZM199.889 185.728C206.601 193.671 213.241 201.475 219.761 209.045L220.518 208.393C214.001 200.825 207.363 193.023 200.652 185.083L199.889 185.728ZM220.061 209.213C243.337 212.913 267.957 213.733 286.751 213.63C296.149 213.578 304.095 213.296 309.691 213.026C312.489 212.891 314.7 212.759 316.212 212.661C316.968 212.612 317.549 212.571 317.942 212.543C318.138 212.529 318.287 212.518 318.388 212.51C318.438 212.506 318.475 212.504 318.501 212.502C318.514 212.501 318.523 212.5 318.53 212.499C318.533 212.499 318.535 212.499 318.537 212.499C318.538 212.499 318.538 212.499 318.539 212.499C318.539 212.499 318.539 212.499 318.5 212C318.461 211.502 318.46 211.502 318.46 211.502C318.46 211.502 318.459 211.502 318.458 211.502C318.457 211.502 318.455 211.502 318.451 211.502C318.445 211.503 318.436 211.504 318.424 211.505C318.399 211.506 318.361 211.509 318.312 211.513C318.213 211.521 318.065 211.532 317.87 211.546C317.48 211.574 316.901 211.614 316.147 211.663C314.64 211.761 312.435 211.892 309.643 212.027C304.058 212.296 296.127 212.578 286.745 212.63C267.978 212.733 243.418 211.913 220.218 208.225L220.061 209.213ZM191.67 202.787C200.53 205.55 210.177 207.642 220.061 209.213L220.218 208.225C210.368 206.659 200.77 204.578 191.968 201.833L191.67 202.787ZM278.655 272.862C293.835 287.367 308.979 294.372 323.813 295.807C338.642 297.241 353.102 293.104 366.909 285.431C394.502 270.096 419.595 240.579 440.018 212.823L439.213 212.23C418.794 239.979 393.811 269.337 366.423 284.557C352.739 292.161 338.483 296.221 323.909 294.811C309.341 293.402 294.397 286.521 279.346 272.139L278.655 272.862ZM439.451 212.055C386.206 230.63 302.836 234.677 235.7 226.009L235.572 227.001C302.801 235.681 386.34 231.642 439.78 212.999L439.451 212.055ZM235.261 226.836C250.948 244.603 265.658 260.442 278.655 272.862L279.346 272.139C266.379 259.748 251.69 243.934 236.01 226.174L235.261 226.836ZM236.01 226.174C230.941 220.433 225.769 214.489 220.518 208.393L219.761 209.045C225.013 215.144 230.188 221.091 235.261 226.836L236.01 226.174ZM183.56 216.65C198.913 221.088 216.598 224.552 235.572 227.001L235.7 226.009C216.764 223.565 199.131 220.11 183.838 215.689L183.56 216.65ZM439.78 212.999C455.302 207.584 468.317 200.926 477.657 192.965C487.003 185 492.696 175.706 493.499 165.038L492.501 164.963C491.724 175.292 486.215 184.357 477.008 192.204C467.797 200.055 454.909 206.662 439.451 212.055L439.78 212.999ZM493.499 165.038C493.904 159.65 493.926 155.575 493.574 152.673C493.398 151.221 493.126 150.041 492.75 149.129C492.375 148.218 491.878 147.534 491.229 147.135C489.888 146.312 488.239 146.878 486.506 148.134C484.735 149.418 482.663 151.571 480.318 154.4C475.622 160.065 469.73 168.567 462.829 178.616C455.922 188.674 447.995 200.296 439.213 212.23L440.018 212.823C448.812 200.873 456.749 189.236 463.653 179.183C470.563 169.121 476.427 160.661 481.088 155.039C483.421 152.224 485.428 150.151 487.093 148.944C488.796 147.709 489.941 147.518 490.706 147.988C491.11 148.235 491.496 148.71 491.826 149.51C492.154 150.308 492.411 151.39 492.581 152.793C492.921 155.598 492.905 159.596 492.501 164.963L493.499 165.038Z" fill="white"/>
</g>
<defs>
<filter id="filter0_bd_1_30" x="0.783966" y="-3.93536" width="497.037" height="308.024" filterUnits="userSpaceOnUse" color-interpolation-filters="sRGB">
<feFlood flood-opacity="0" result="BackgroundImageFix"/>
<feGaussianBlur in="BackgroundImageFix" stdDeviation="2"/>
<feComposite in2="SourceAlpha" operator="in" result="effect1_backgroundBlur_1_30"/>
<feColorMatrix in="SourceAlpha" type="matrix" values="0 0 0 0 0 0 0 0 0 0 0 0 0 0 0 0 0 0 127 0" result="hardAlpha"/>
<feOffset dy="4"/>
<feGaussianBlur stdDeviation="2"/>
<feComposite in2="hardAlpha" operator="out"/>
<feColorMatrix type="matrix" values="0 0 0 0 0 0 0 0 0 0 0 0 0 0 0 0 0 0 0.25 0"/>
<feBlend mode="normal" in2="effect1_backgroundBlur_1_30" result="effect2_dropShadow_1_30"/>
<feBlend mode="normal" in="SourceGraphic" in2="effect2_dropShadow_1_30" result="shape"/>
</filter>
</defs>
</svg>
